<svg xmlns="http://www.w3.org/2000/svg" width="142" height="98" viewBox="0 0 142 98" fill="none"><path fill-rule="evenodd" clip-rule="evenodd" d="M33.5 42C41.5081 42 48 35.5081 48 27.5C48 19.4919 41.5081 13 33.5 13C25.4919 13 19 19.4919 19 27.5C19 35.5081 25.4919 42 33.5 42ZM60.9598 29C60.1809 43.4903 48.1846 55 33.5 55C20.5514 55 9.69307 46.0507 6.77268 34H6.5C2.91015 34 0 31.0899 0 27.5C0 23.9101 2.91015 21 6.5 21H6.77268C9.69307 8.94925 20.5514 0 33.5 0C44.023 0 53.1655 5.91044 57.7889 14.5927C61.2262 11.7188 65.6874 10 70.5 10C75.3126 10 79.7738 11.7188 83.2111 14.5927C87.8345 5.91044 96.977 0 107.5 0C120.449 0 131.307 8.94925 134.227 21H135.5C139.09 21 142 23.9101 142 27.5C142 31.0899 139.09 34 135.5 34H134.227C131.307 46.0507 120.449 55 107.5 55C92.8154 55 80.8191 43.4903 80.0402 29H80C80 24.1934 75.9135 20 70.5 20C65.0865 20 61 24.1934 61 29H60.9598ZM107.5 42C115.508 42 122 35.5081 122 27.5C122 19.4919 115.508 13 107.5 13C99.4919 13 93 19.4919 93 27.5C93 35.5081 99.4919 42 107.5 42Z" fill="#C2A46A"></path><path d="M70.9448 73.6477C67.0863 70.5655 57.3354 67.6614 42.3562 80.4067C38.0876 83.712 29.3256 89.2483 19.8896 80.4067C20.6385 85.9499 26.6296 97.0362 44.6029 97.0362C62.3334 97.0362 69.4964 91.0722 70.9448 87.9693C72.3932 91.0722 79.5562 97.0362 97.2867 97.0362C115.26 97.0362 121.251 85.9499 122 80.4067C112.564 89.2483 103.802 83.712 99.5334 80.4067C84.5542 67.6614 74.8032 70.5655 70.9448 73.6477Z" fill="#C2A46A"></path></svg>